<?xml version="1.0" encoding="UTF-8"?>
<svg width="512" height="512" viewBox="0 0 24 24" xmlns="http://www.w3.org/2000/svg">
    <path fill="#8b5cf6" d="M21 18c-.55 0-1-.45-1-1v-1c0-2.76-2.24-5-5-5h-5v2.17c0 .67-.87.98-1.29.41l-3.17-4.17c-.32-.42-.32-1 0-1.42l3.17-4.17c.42-.57 1.29-.26 1.29.41V6h5c4.42 0 8 3.58 8 8v1c0 .55-.45 1-1 1z"/>
    <path fill="#8b5cf6" d="M3 18c.55 0 1-.45 1-1v-1c0-2.76 2.24-5 5-5h5v2.17c0 .67.87.98 1.29.41l3.17-4.17c.32-.42.32-1 0-1.42L15.29 3.41C14.87 2.84 14 3.15 14 3.83V6h-5C4.58 6 1 9.58 1 14v1c0 .55.45 1 1 1z"/>
</svg>